<svg width="20" height="24" viewBox="0 0 20 24" fill="none" xmlns="http://www.w3.org/2000/svg">
<path d="M10.076 0C3.497 0.001 0 4.216 0 8.812C0 10.943 1.191 13.602 3.098 14.445C3.642 14.69 3.57 14.391 4.038 12.601C4.075 12.452 4.056 12.323 3.936 12.184C1.21 9.031 3.404 2.549 9.687 2.549C18.78 2.549 17.081 15.131 11.269 15.131C9.771 15.131 8.655 13.955 9.008 12.5C9.436 10.767 10.274 8.904 10.274 7.655C10.274 4.507 5.584 4.974 5.584 9.145C5.584 10.434 6.04 11.304 6.04 11.304C6.04 11.304 4.531 17.4 4.251 18.539C3.777 20.467 4.315 23.588 4.362 23.857C4.391 24.005 4.557 24.052 4.65 23.93C4.799 23.735 6.623 21.133 7.134 19.252C7.32 18.567 8.083 15.787 8.083 15.787C8.586 16.695 10.036 17.455 11.581 17.455C16.177 17.455 19.499 13.415 19.499 8.402C19.483 3.596 15.37 0 10.076 0V0Z" fill="white"/>
</svg>
